<svg width="44" height="44" viewBox="0 0 44 44" fill="none" xmlns="http://www.w3.org/2000/svg">
<path d="M28.6667 17.8C28.6667 15.9965 27.9643 14.2669 26.714 12.9917C25.4638 11.7164 23.7681 11 22 11C20.2319 11 18.5362 11.7164 17.286 12.9917C16.0357 14.2669 15.3333 15.9965 15.3333 17.8C15.3333 25.7333 12 28 12 28H32C32 28 28.6667 25.7333 28.6667 17.8Z" stroke="currentColor" stroke-width="2" stroke-linecap="round" stroke-linejoin="round"/>
<path d="M24 32C23.7968 32.3042 23.505 32.5566 23.154 32.7321C22.803 32.9076 22.4051 33 22 33C21.5949 33 21.197 32.9076 20.846 32.7321C20.495 32.5566 20.2032 32.3042 20 32" stroke="currentColor" stroke-width="2" stroke-linecap="round" stroke-linejoin="round"/>
</svg>
