<svg width="244" height="260" viewBox="0 0 244 260" fill="none" xmlns="http://www.w3.org/2000/svg">
<path d="M231.152 60.0408C238.247 60.0408 243.999 54.3649 243.999 47.364L243.999 12.4099C243.999 6.1152 238.882 0.983065 232.503 0.880621C229.1 0.826071 225.841 2.23879 223.579 4.74878L217.677 11.2996C213.282 16.1769 205.852 16.9645 200.507 13.1199L185.582 2.38452C183.486 0.876405 180.968 0.0440154 178.373 0.00171018C171.494 -0.11032 165.798 5.24784 165.582 12.033L164.473 46.9675C164.246 54.1204 170.061 60.0406 177.314 60.0408L231.152 60.0408Z" fill="#EFFEFE"/>
<path d="M76.3722 14.8867C69.2765 14.8867 63.5225 20.5639 63.5225 27.5648V61.1837C63.5225 68.1846 69.2765 73.8618 76.3722 73.8618H78.1924C80.8934 73.8615 83.5272 73.0202 85.7167 71.4596L102.906 59.2085C107.397 56.0073 113.464 56.0073 117.955 59.2085L135.144 71.4596C137.334 73.0202 139.968 73.8615 142.669 73.8618H142.904C150 73.8618 155.754 68.1846 155.754 61.1837V27.5648C155.754 20.5639 150 14.8867 142.904 14.8867H76.3722Z" fill="#EFFEFE"/>
<path d="M166.623 127.689C173.718 127.689 179.47 122.013 179.47 115.012L179.47 80.0579C179.47 73.7631 174.353 68.631 167.974 68.5286C164.571 68.474 161.312 69.8867 159.051 72.3967L153.148 78.9475C148.753 83.8248 141.323 84.6124 135.978 80.7678L121.053 70.0325C118.957 68.5244 116.439 67.692 113.844 67.6497C106.965 67.5376 101.269 72.8958 101.053 79.6809L99.9441 114.615C99.717 121.768 105.532 127.689 112.785 127.689L166.623 127.689Z" fill="#EFFEFE"/>
<path d="M12.8497 81.5398C5.75407 81.5398 7.62939e-05 87.217 7.62939e-05 94.2179V127.837C7.62939e-05 134.838 5.75407 140.515 12.8497 140.515H14.6699C17.3709 140.515 20.0047 139.673 22.1942 138.113L39.3837 125.862C43.8749 122.66 49.9411 122.66 54.4323 125.862L71.6218 138.113C73.8112 139.673 76.445 140.515 79.1461 140.515H79.3818C86.4775 140.515 92.2314 134.838 92.2314 127.837V94.2179C92.2314 87.217 86.4775 81.5398 79.3818 81.5398H12.8497Z" fill="#EFFEFE"/>
<path d="M103.099 194.342C110.195 194.342 115.947 188.667 115.947 181.666L115.947 146.711C115.947 140.416 110.83 135.285 104.451 135.183C101.047 135.128 97.7887 136.54 95.5271 139.05L89.6248 145.601C85.2297 150.478 77.7999 151.266 72.4548 147.421L57.53 136.686C55.4334 135.177 52.9153 134.345 50.3211 134.303C43.4417 134.191 37.7455 139.549 37.53 146.334L36.4207 181.269C36.1935 188.421 42.0083 194.342 49.2615 194.342L103.099 194.342Z" fill="#EFFEFE"/>
<path d="M138.886 147.198C131.79 147.198 126.036 152.875 126.036 159.876V193.495C126.036 200.496 131.79 206.173 138.886 206.173H140.706C143.407 206.173 146.041 205.332 148.23 203.771L165.42 191.52C169.911 188.319 175.977 188.319 180.468 191.52L197.658 203.771C199.847 205.332 202.481 206.173 205.182 206.173H205.418C212.513 206.173 218.267 200.496 218.267 193.495V159.876C218.267 152.875 212.513 147.198 205.418 147.198H138.886Z" fill="#EFFEFE"/>
<path d="M229.135 260C236.231 260 241.983 254.324 241.983 247.323L241.983 212.369C241.983 206.074 236.866 200.943 230.487 200.841C227.083 200.786 223.824 202.198 221.563 204.708L215.66 211.259C211.265 216.136 203.836 216.924 198.49 213.079L183.566 202.344C181.469 200.836 178.951 200.003 176.357 199.961C169.477 199.849 163.781 205.207 163.566 211.992L162.456 246.927C162.229 254.08 168.044 260 175.297 260L229.135 260Z" fill="#EFFEFE"/>
</svg>
