<svg width="156" height="154" viewBox="0 0 156 154" fill="none" xmlns="http://www.w3.org/2000/svg">
<path d="M138.018 0C147.517 0 155.22 7.70291 155.22 17.2019V62.8167C155.22 72.3157 147.517 80.0186 138.018 80.0186H135.582C131.966 80.0183 128.44 78.8768 125.509 76.7593L102.497 60.1368C96.4846 55.7933 88.3637 55.7933 82.3513 60.1368L59.3396 76.7593C56.4085 78.8768 52.8827 80.0183 49.2668 80.0186H48.9512C39.4522 80.0186 31.7493 72.3157 31.7493 62.8167V17.2019C31.7493 7.70291 39.4522 0 48.9512 0H138.018Z" fill="#42AFB1"/>
<path d="M17.1992 153.052C7.70036 153.052 0.000136656 145.352 -1.5036e-06 135.853L-5.64987e-06 88.4253C-6.39653e-06 79.8845 6.84996 72.9217 15.3896 72.7827C19.946 72.7086 24.3082 74.6251 27.3359 78.0308L35.2373 86.9185C41.1209 93.5366 51.068 94.6058 58.2236 89.3892L78.2041 74.8228C81.0109 72.7765 84.3814 71.6477 87.8545 71.5903C97.0639 71.4383 104.69 78.7074 104.979 87.9136L106.463 135.314C106.767 145.019 98.9824 153.052 89.2725 153.052L17.1992 153.052Z" fill="#42AFB1"/>
</svg>
