<svg width="120" height="120" viewBox="0 0 120 120" fill="none" xmlns="http://www.w3.org/2000/svg">
<rect width="120" height="120" rx="60" fill="#121212"/>
<path d="M45.004 33.8011L85.5205 33.8011C86.0416 33.8011 86.5414 34.0082 86.9099 34.3767C87.2784 34.7451 87.4854 35.2449 87.4854 35.7661L87.4854 67.8596C87.4854 68.3808 87.2784 68.8805 86.9099 69.249C86.5414 69.6175 86.0416 69.8245 85.5205 69.8245L76.4557 69.8245C75.3247 69.8245 74.2129 70.1174 73.2287 70.6747C72.2444 71.2319 71.4213 72.0346 70.8393 73.0044L61.9645 87.7969C61.2951 88.9141 60.2407 89.7483 58.9994 90.1425C57.7581 90.5368 56.4156 90.4639 55.2243 89.9377C54.033 89.4114 53.075 88.468 52.5305 87.2849C51.986 86.1019 51.8925 84.7606 52.2676 83.5134L55.6145 72.3527C55.7022 72.0596 55.7203 71.75 55.6672 71.4487C55.6142 71.1474 55.4915 70.8626 55.3089 70.617C55.1263 70.3715 54.889 70.172 54.6157 70.0344C54.3424 69.8968 54.0407 69.825 53.7348 69.8245L38.749 69.8245C37.7422 69.8242 36.7489 69.5918 35.8465 69.1453C34.944 68.6988 34.1566 68.0502 33.5455 67.25C32.9344 66.4498 32.5161 65.5194 32.3229 64.5313C32.1298 63.5431 32.167 62.5237 32.4318 61.5523L38.6868 38.6283C39.0645 37.2428 39.8871 36.0198 41.0279 35.1476C42.1688 34.2754 43.5679 33.8023 45.004 33.8011Z" stroke="#BDBDBD" stroke-width="4.91228" stroke-linecap="round"/>
<path d="M76.0233 33.8012L76.0233 69.8246" stroke="#BDBDBD" stroke-width="4.91228" stroke-linecap="round" stroke-linejoin="round"/>
</svg>
