<svg width="120" height="120" viewBox="0 0 120 120" fill="none" xmlns="http://www.w3.org/2000/svg">
<rect width="120" height="120" rx="60" fill="#EEEEEE"/>
<path d="M74.2942 86.1989H33.7777C33.2566 86.1989 32.7568 85.9918 32.3883 85.6233C32.0198 85.2549 31.8128 84.7551 31.8128 84.2339V52.1404C31.8128 51.6192 32.0198 51.1195 32.3883 50.751C32.7568 50.3825 33.2566 50.1755 33.7777 50.1755H42.8425C43.9736 50.1755 45.0853 49.8826 46.0696 49.3253C47.0538 48.7681 47.877 47.9654 48.4589 46.9956L57.3337 32.2031C58.0031 31.0859 59.0575 30.2517 60.2988 29.8575C61.5401 29.4632 62.8826 29.5361 64.0739 30.0623C65.2652 30.5886 66.2232 31.532 66.7677 32.715C67.3122 33.8981 67.4057 35.2394 67.0306 36.4866L63.6837 47.6473C63.596 47.9404 63.5779 48.25 63.631 48.5513C63.684 48.8526 63.8067 49.1374 63.9893 49.3829C64.1719 49.6285 64.4093 49.828 64.6825 49.9656C64.9558 50.1032 65.2575 50.175 65.5634 50.1755H80.5492C81.5561 50.1758 82.5493 50.4082 83.4518 50.8547C84.3542 51.3012 85.1416 51.9498 85.7527 52.75C86.3638 53.5502 86.7822 54.4806 86.9753 55.4687C87.1685 56.4569 87.1312 57.4763 86.8664 58.4477L80.6114 81.3717C80.2337 82.7572 79.4111 83.9802 78.2703 84.8524C77.1294 85.7246 75.7303 86.1977 74.2942 86.1989Z" stroke="#9E9E9E" stroke-width="4.91228" stroke-linecap="round"/>
<path d="M43.2749 86.1987V50.1754" stroke="#9E9E9E" stroke-width="4.91228" stroke-linecap="round" stroke-linejoin="round"/>
</svg>
