<svg width="24" height="24" viewBox="0 0 24 24" fill="none" xmlns="http://www.w3.org/2000/svg">
<path d="M19.8191 2.17175C21.0486 2.17175 22.0457 3.16879 22.0457 4.39832V10.3026C22.0457 11.5321 21.0486 12.5291 19.8191 12.5291H19.5037C19.0357 12.5291 18.5793 12.3813 18.1999 12.1072L15.2213 9.95568C14.4431 9.39346 13.392 9.39346 12.6137 9.95568L9.63517 12.1072C9.25579 12.3813 8.79941 12.5291 8.33138 12.5291H8.29053C7.06101 12.5291 6.06396 11.5321 6.06396 10.3026V4.39832C6.06396 3.16879 7.06101 2.17175 8.29053 2.17175H19.8191Z" fill="#42AFB1"/>
<path d="M4.18018 21.9824C2.95085 21.9822 1.95459 20.9852 1.95459 19.7559L1.95459 13.6172C1.95461 12.5117 2.84144 11.6108 3.94678 11.5928C4.53631 11.5833 5.10087 11.8309 5.49267 12.2715L6.51514 13.4219C7.27668 14.2785 8.56452 14.4174 9.49072 13.7422L12.0767 11.8564C12.4399 11.5916 12.8762 11.446 13.3257 11.4385C14.5177 11.4188 15.505 12.3593 15.5425 13.5508L15.7349 19.6865C15.7741 20.9427 14.7661 21.9824 13.5093 21.9824L4.18018 21.9824Z" fill="#42AFB1"/>
</svg>
